/* XPM */
static char *d3ac744d64ea4b1ba885c337fb70ebf47vVaCQVYjQWSOOo4[] = {
/* columns rows colors chars-per-pixel */
"50 50 168 2 ",
"   c #83704C",
".  c #907C57",
"X  c #927F59",
"o  c #99855E",
"O  c #9A8761",
"+  c #9E8961",
"@  c #A28E66",
"#  c #A59166",
"$  c #A6926B",
"%  c #A9946C",
"&  c #AE9A6F",
"*  c #AE9A71",
"=  c #AC9C7A",
"-  c #B39E74",
";  c #B6A175",
":  c #B9A277",
">  c #B6A37B",
",  c #BAA57A",
"<  c #BEA97D",
"1  c #C1AA7D",
"2  c #98948D",
"3  c #939393",
"4  c #9E9A95",
"5  c #9C9C9C",
"6  c #B6A483",
"7  c #B9A782",
"8  c #BDAA84",
"9  c #B2A58D",
"0  c #B6A98E",
"q  c #BFAE8C",
"w  c #ADA493",
"e  c #A9A49C",
"r  c #B9AA90",
"t  c #B3AC9E",
"y  c #B9AF9D",
"u  c #BDB29D",
"i  c #A4A4A4",
"p  c #ACAAA6",
"a  c #ACACAC",
"s  c #B2ADA4",
"d  c #B1AFAB",
"f  c #BBB3A5",
"g  c #B4B0AB",
"h  c #BDB6AB",
"j  c #B4B4B4",
"k  c #B9B7B4",
"l  c #BDBBB6",
"z  c #BCBCBC",
"x  c #C3AD82",
"c  c #C0AF8B",
"v  c #C6B185",
"b  c #CBB486",
"n  c #C5B28B",
"m  c #CBB68B",
"M  c #CEB98C",
"N  c #D3BC8D",
"B  c #C4B493",
"V  c #C9B692",
"C  c #CDBA92",
"Z  c #C4B69C",
"A  c #D4BE92",
"S  c #D1BF9B",
"D  c #C0B7A5",
"F  c #C5BAA3",
"G  c #CCBDA2",
"H  c #C4BDB2",
"J  c #D6C08F",
"K  c #D6C194",
"L  c #DAC393",
"P  c #D5C29C",
"I  c #DBC69A",
"U  c #DEC99C",
"Y  c #E3CC9D",
"T  c #D4C4A5",
"R  c #DBC7A2",
"E  c #DDCAA3",
"W  c #D6C7AB",
"Q  c #DBCBAA",
"!  c #CBC3B4",
"~  c #CAC6BF",
"^  c #DACDB3",
"/  c #DACFBB",
"(  c #DED1B5",
")  c #DFD3BE",
"_  c #E4CEA1",
"`  c #E3CEA8",
"'  c #E7D1A3",
"]  c #EBD3A4",
"[  c #EBD4A4",
"{  c #EDD5A6",
"}  c #E5D1AB",
"|  c #EDD6AA",
" . c #EFD9AB",
".. c #F2DBAB",
"X. c #E2D2B3",
"o. c #ECDAB4",
"O. c #E2D5BA",
"+. c #E7D9BE",
"@. c #ECDDBE",
"#. c #F5DEB0",
"$. c #F0DFBB",
"%. c #F7E0B1",
"&. c #F9E4B5",
"*. c #FBE6BB",
"=. c #C1C1C1",
"-. c #C2C2C1",
";. c gray76",
":. c #C3C3C3",
">. c gray77",
",. c #C5C5C5",
"<. c #C6C6C5",
"1. c #C7C7C7",
"2. c #C8C7C4",
"3. c #C8C8C8",
"4. c #CBCBCB",
"5. c #CCCCCC",
"6. c #CDCDCD",
"7. c #CFCFCF",
"8. c #D0CECC",
"9. c #DCD3C0",
"0. c #DFD6C6",
"q. c #D7D4CD",
"w. c #D3D3D3",
"e. c gray83",
"r. c #DAD9D7",
"t. c #DBDBDB",
"y. c #E5DAC5",
"u. c #ECDFC6",
"i. c #E1D9C9",
"p. c #E3DBCF",
"a. c #E4DCCF",
"s. c #E5DED1",
"d. c #F5E6C3",
"f. c #FAE9C3",
"g. c #FAEAC8",
"h. c #E6E1D7",
"j. c #E8E1D2",
"k. c #E9E2D6",
"l. c #EEE5D5",
"z. c #E6E3DC",
"x. c #EAE5DB",
"c. c #ECE6DB",
"v. c #EFE9DE",
"b. c #F4E9D5",
"n. c #F3ECDE",
"m. c #E3E3E3",
"M. c #E8E7E4",
"N. c #EEE9E2",
"B. c #EEEAE3",
"V. c #EAEAEA",
"C. c #F2EDE4",
"Z. c #F2EFEA",
"A. c #F7F1E7",
"S. c #F3F0EB",
"D. c #F4F2ED",
"F. c #F9F4EC",
"G. c #F5F5F3",
"H. c #F8F6F3",
"J. c #F8F7F4",
"K. c #FAF8F6",
"L. c #FBFAF8",
"P. c #FBFBF9",
"I. c gray98",
"U. c gray99",
"Y. c #FDFDFC",
"T. c #FDFDFD",
"R. c #FEFDFD",
"E. c #FEFEFE",
/* pixels */
"E.E.E.E.E.E.E.E.E.E.E.E.E.E.E.E.E.E.E.E.E.E.E.E.E.E.E.E.E.E.E.E.E.E.E.E.E.E.E.E.E.E.E.E.E.E.E.E.E.E.",
"E.E.E.E.E.E.E.E.E.E.E.E.E.E.E.E.E.E.E.E.E.E.E.E.E.E.E.E.E.E.E.E.E.E.E.E.E.E.E.E.E.E.E.E.E.E.E.E.E.E.",
"E.E.E.E.E.E.E.E.E.E.E.E.E.E.E.E.E.E.E.Y.C.p.O.T T G G T / p.N.I.E.E.E.E.E.E.E.E.E.E.E.E.E.E.E.E.E.E.",
"E.E.E.E.E.E.E.E.E.E.E.E.E.E.E.E.K.k.^ m N 1 1 1 % @ - - 1 b b m ^ x.K.E.E.E.E.E.E.E.E.E.E.E.E.E.E.E.",
"E.E.E.E.E.E.E.E.E.E.E.E.E.E.H.y.m b - * % - 1 N A L L N x - 6 - 1 J A i.K.E.E.Y.E.E.E.E.E.E.E.E.E.E.",
"E.E.E.E.E.E.I.E.E.E.E.E.E.s.A v 7 6 A N A A N L N N A L L Y I Y v * : N C h.E.E.E.E.E.E.E.E.E.E.E.E.",
"E.E.E.E.E.E.E.E.R.E.Y.G.T m # 1 R R U N N N N N N N N N A Y A L U N K * x K W G.I.K.E.E.E.E.E.E.E.E.",
"E.E.E.E.I.I.E.E.Y.E.N.m < - N L R R A b b N b N N N L A A N L N L b K L N & J Q Z.E.E.E.E.E.E.E.E.E.",
"E.E.E.E.E.E.E.E.E.h.m * 1 L N N N b b N N N N m m m V S A L A L M M K K m Y > M K x.E.T.E.E.E.E.E.E.",
"E.E.E.E.E.E.E.E.x.b $ N L N N N N N N x r e i a d j j j d f F I K n M K J [ K v x A N.T.E.E.E.E.E.E.",
"E.E.E.E.E.E.E.C.A & N K N A N N N v w a k :.:.:.>.:.:.:.=.~ :.z ! 7 M C K Y v [ v < K S.E.E.E.E.E.E.",
"E.E.E.E.E.E.G.S % N J N N b N b 9 p z :.:.:.z 1.8.8.5.1.:.1.:.>.<.i h M v 8 b U I < v P T.E.E.E.E.E.",
"E.E.E.E.E.E.^ : M A N N N N m s k =.z :.1.:.:.:.>.>.3.w.4.3.4.4.3.a <.2 8 v m K K [ % A ( T.T.E.E.E.",
"E.E.E.E.E.x.v < L J N b N N d z :.:.1.>.1.:.>.>.1.1.1.3.w.6.7.6.6.j a 3.:.E M C Y A I o N N.T.E.E.E.",
"E.E.E.E.I.S ; I L L N N N s j z :.:.:.z i a a i k 1.3.5.6.w.7.w.e.a a r.3.a Q m V m Y m & W E.E.E.E.",
"E.E.E.E.s.x M L A N N Y 9 k d 1.1.:.z a :.3.4.3.j z 3.6.7.w.w.w.r.5 7.7.<.j q.' 8 K [ [ o N N.E.E.E.",
"E.E.E.Y.G 1 Y L A N A q j a z 1.1.:.a >.:.3.3.3.3.j 6.4.6.6.6.e.=.i e.e.3.=.6.f O.B E [ M # ^ E.E.E.",
"E.E.Y.Z.C S ` A A L A e :.a :.:.>.j >.1.3.3.3.5.4.j 7.e.t.7.e.z a r.e.7.4.3.6.j P 8 K [ Y o M G.E.E.",
"E.E.E.i.V } _ Y L L q z :.z a z j k 3.1.3.6.5.6.:.4.7.e.t.3.t.j 1.w.7.3.w.>.=.j ! U v ' ' ; v j.E.E.",
"E.E.E.W v ' Y N L L p :.:.1.:.j :.1.4.6.7.8.6.5.3.7.3.j j 6.t.3.a j t.7.t.w.a e.t.I m ' ' K $ ( E.E.",
"E.E.I.m b Y L A N A k 1.1.3.3.6.3.1.3.e.e.7.5.6.6.w.e.5 a t.t.t.7.4.=.>.1.a a t.w.q v U [ ' o L Y.E.",
"E.E.Z.1 L L L L L V H 1.3.3.q.w.6.5.6.e.6.e.w.e.e.1.i 5 j r.t.t.~ z j t.t.i e.m.6.f K M ' Y o J D.E.",
"E.E.x.- ' Y L L L u 1.1.3.7.7.e.e.6.7.6.e.t.w.e.e.3 z 6.j >.t.t.z a j z i 5 t.m.r.g K b Y ' * N C.E.",
"E.E.p.- Y Y L L I s 1.3.3.7.7.6.e.e.>.7.t.e.w.3.j 1.w.a 6.1.w.a a :.:.:.r.t.t.t.6.g P b ' ' , v x.E.",
"E.E.i., Y Y Y A L g 5.6.8.6.7.e.w.w.:.e.t.t.=.:.w.t.t.z j z j j 6.t.t.w.w.6.3.6.6.j b x L ' x 1 c.E.",
"E.E.i.: ] Y Y Y Y h 4.3.7.6.6.w.w.:.w.w.t.4.:.t.t.t.7.3.5 a :.j z j j 1.a a a a a k 6 7 q , x 8 l.E.",
"E.E.p.1 Y Y Y L Y D 3.6.7.6.e.w.t.z t.t.t.z t.t.t.r.6.a 4.a w.3.3.j >.z z 1.j a z 5 = P Y % , < n.E.",
"E.E.k., { Y Y Y ' f 7.6.e.e.e.e.t.:.w.t.4.3.t.t.t.w.t.2.i z z j j >.w.1.:.a j j <.4 m  .Y 8 > m C.E.",
"R.R.C.- { Y ] _ ' Z 5.w.w.w.w.6.w.t.:.z 3.t.t.t.:.1.3.j i 4.1.:.j :.z 5 :.j z j <.s x  .q V % I F.E.",
"E.R.H.1 Y Y ] Y _ K 3.q.w.w.6.w.t.m.m.m.m.t.t.4.a 3.z i i z a 3 1.5 i z a 3 z 3.<.y q n n ] O | I.E.",
"E.E.R.S m ..] Y ' Y z w.w.6.w.t.t.t.m.m.V.t.t.a w.w.:.3.=.a V.m.z 3.i :.m.z j 3.z 0 ' A ..[ o o.E.E.",
"E.E.E.y.x { { ] ' | D 6.w.e.t.t.1.t.t.m.m.t.w.5 r.:.z z 3.t.m.t.:.m.t.a a 6.5 j 0...' @ U N > b.E.E.",
"E.E.E.C., { { { { ] Y ~ w.r.t.r.1.t.m.t.w.r.r.3 a 3.3.a m.7.m.m.3.m.V.m.j V.6.3 R n E m U $ I D.E.Y.",
"E.E.E.I.I b ....{ { { ^ r.t.t.t.z t.t.e.z t.m.t.z i i t.m.m.V.m.m.m.1.j m.M.m.t o.m K %.' . @.E.E.E.",
"E.E.E.E.s.1 ..{ { { { { 2.t.m.t.t.:.:.1.m.m.t.m.t.m.m.m.m.m.G.V.m.=.V.w.6.t.k Q U B K  ., v n.E.E.E.",
"E.E.E.E.J.n L ......{ { I 3.t.m.m.m.m.m.m.m.t.m.7.H z m.m.G.G.V.V.=.V.z w.r.9 ' m I U '   o.L.E.E.E.",
"E.E.E.E.E.s.- ......{ { { S 8.s.m.m.m.t.m.m.m.m.m.m.m.V.m.U.I.V.V.1.V.z 6.Q K Q c I I ; V n.Y.E.E.E.",
"E.E.E.E.E.I.I b ....{ ....{ T 6.t.m.m.m.m.m.m.m.m.m.m.V.V.G.I.V.V.=.V.l G _ v E n ..K - u.Y.E.E.E.E.",
"E.E.E.E.E.E.C.1 Y ....{ { ...._ H r.m.m.m.m.m.m.m.m.V.m.V.V.V.V.V.:.z.n U ' 7 I m U o } S.E.E.E.E.E.",
"E.E.E.E.E.E.E.l.1 _ ............' G :.t.m.m.m.m.m.V.V.V.V.V.V.V.m.g  .I x n n  .Y % U x.E.E.E.E.E.E.",
"E.E.E.E.E.E.R.R.u.1 Y ..............| S ! 6.t.t.m.m.m.M.V.M.j.@.%.' U < K U n Y * P y.E.E.E.E.E.E.E.",
"E.E.E.E.R.I.I.E.I.o., Y ....#... ... .....{ _ X.^ / O.+.@.d.*.&...> P 8 U I Y % R ) U.E.E.E.E.E.E.E.",
"E.E.E.E.I.E.R.R.E.Y.u.x N ..#.#.......{ ....#.#.%.%.*.*.g.f.*.&.%.7 } C _ m - } a.E.E.E.E.E.E.E.E.E.",
"E.E.E.E.E.E.E.E.E.E.E.l.N N Y ..[ ..{ ........&.&.&.*.&.*.*.&.%...m { K < m } x.E.E.E.E.E.E.E.E.E.E.",
"E.E.E.E.E.E.E.E.E.E.E.E.F.` m m Y ' { ..#.%.%.%.&.&.&.&.*.&.&.%.' U 1 < U ( G.E.E.E.E.E.E.E.E.E.E.E.",
"E.E.E.E.E.E.E.E.E.E.E.E.E.E.l.R m b L ' { ....#.%.%.&.&.....] N > < L Q x.E.E.E.E.E.E.E.E.E.E.E.E.E.",
"E.E.E.E.E.E.E.E.E.E.E.E.E.E.E.E.v.( I A N A L L Y E Y A b x b N P ( x.U.E.E.E.E.E.E.E.E.E.E.E.E.E.E.",
"E.E.E.E.E.E.E.E.E.E.E.E.E.E.E.E.E.E.J.c.) R S A b m m M C W y.z.G.E.E.E.E.E.E.E.E.E.E.E.E.E.E.E.E.E.",
"E.E.E.E.E.E.E.E.E.E.E.E.E.E.E.E.E.E.E.E.E.E.E.G.Z.V.D.J.R.E.E.E.Y.E.E.E.E.E.E.E.E.E.E.E.E.E.E.E.E.E.",
"E.E.E.E.E.E.E.E.E.E.E.E.E.E.E.E.E.E.E.E.E.E.E.E.E.E.E.E.E.E.E.E.E.E.E.E.E.E.E.E.E.E.E.E.E.E.E.E.E.E."
};
