/* XPM */
static char *b623083463e649aca03662ab482b7a4fUkHZ7hY8oDEFHunb[] = {
/* columns rows colors chars-per-pixel */
"50 50 244 2 ",
"   c #0C0F0A",
".  c #0E0F0D",
"X  c #0F110B",
"o  c #14140D",
"O  c #1A180E",
"+  c #0E1314",
"@  c #0E161A",
"#  c #121515",
"$  c #1A1915",
"%  c #1C1A14",
"&  c #11161A",
"*  c #13191D",
"=  c #231D15",
"-  c #2F1C14",
";  c #1E221D",
":  c #242216",
">  c #23241B",
",  c #292719",
"<  c #2A251D",
"1  c #35261B",
"2  c #3A301F",
"3  c #0F1B27",
"4  c #151B22",
"5  c #181D24",
"6  c #18222A",
"7  c #162539",
"8  c #242621",
"9  c #262A23",
"0  c #2B2C24",
"q  c #252A28",
"w  c #2C2F29",
"e  c #322D23",
"r  c #362C26",
"t  c #2F3025",
"y  c #2D322B",
"u  c #363326",
"i  c #33342B",
"p  c #38342A",
"a  c #36392D",
"s  c #3B392D",
"d  c #202F32",
"f  c #283137",
"g  c #343731",
"h  c #343932",
"j  c #3B3C33",
"k  c #3C3F39",
"l  c #442B1D",
"z  c #562D1F",
"x  c #472D27",
"c  c #542D2A",
"v  c #4C3425",
"b  c #493A2B",
"n  c #55372A",
"m  c #463D33",
"M  c #593C33",
"N  c #6A3D39",
"B  c #3D4138",
"V  c #4A4537",
"C  c #44453C",
"Z  c #544434",
"A  c #564935",
"S  c #584739",
"D  c #5D4C3C",
"F  c #684934",
"G  c #664939",
"H  c #68533A",
"J  c #74553E",
"K  c #182B48",
"L  c #1C314A",
"P  c #1D385B",
"I  c #213B5B",
"U  c #223B64",
"Y  c #4B3C4D",
"T  c #364A57",
"R  c #284469",
"E  c #4C4B43",
"W  c #594E42",
"Q  c #5C5245",
"!  c #4D5857",
"~  c #694C42",
"^  c #7A4C49",
"/  c #6C5344",
"(  c #665748",
")  c #6E5C4B",
"_  c #735344",
"`  c #745C44",
"'  c #745C4D",
"]  c #785A49",
"[  c #6A4F55",
"{  c #6A5B53",
"}  c #775C53",
"|  c #5B615B",
" . c #75644D",
".. c #7A644C",
"X. c #6B6352",
"o. c #7B6553",
"O. c #766956",
"+. c #7D6A54",
"@. c #776959",
"#. c #4E5365",
"$. c #615569",
"%. c #58676D",
"&. c #6F6D6F",
"*. c #7D7363",
"=. c #855B48",
"-. c #895C53",
";. c #955D54",
":. c #82654C",
">. c #856456",
",. c #846C54",
"<. c #8C6B55",
"1. c #836C5B",
"2. c #8B6B5C",
"3. c #956859",
"4. c #9C6C5C",
"5. c #8A7357",
"6. c #84715B",
"7. c #8A735C",
"8. c #94745D",
"9. c #98745B",
"0. c #826E61",
"q. c #976D65",
"w. c #847362",
"e. c #8B7464",
"r. c #8A7A64",
"t. c #87776A",
"y. c #8C7B69",
"u. c #937564",
"i. c #947B63",
"p. c #9C7C65",
"a. c #987468",
"s. c #937B6B",
"d. c #9B7D6A",
"f. c #827D74",
"g. c #947E70",
"h. c #9C7D71",
"j. c #A27464",
"k. c #A37B66",
"l. c #A67669",
"z. c #A47B6A",
"x. c #AB7E6B",
"c. c #B07F6C",
"v. c #A37D72",
"b. c #A77C74",
"n. c #988269",
"m. c #9B836B",
"M. c #8D8475",
"N. c #9A8776",
"B. c #A58467",
"V. c #A3836C",
"C. c #AA846D",
"Z. c #A38A6D",
"A. c #AB8A6E",
"S. c #B1856E",
"D. c #A48374",
"F. c #AB8573",
"G. c #A48B73",
"H. c #AB8B74",
"J. c #A9857A",
"K. c #A48D7B",
"L. c #AC8C7B",
"P. c #B48A76",
"I. c #B38D7B",
"U. c #AC9274",
"Y. c #A9947A",
"T. c #AD947C",
"R. c #B3937D",
"E. c #B7937C",
"W. c #B29A7D",
"Q. c #D2877F",
"!. c #4B679D",
"~. c #6C7A82",
"^. c #6E7793",
"/. c #837587",
"(. c #758790",
"). c #7992B8",
"_. c #7DA7CE",
"`. c #988D87",
"'. c #919190",
"]. c #A68D84",
"[. c #B38C82",
"{. c #B58E89",
"}. c #AB9383",
"|. c #AA9787",
" X c #B49484",
".X c #BA9682",
"XX c #B49A82",
"oX c #BB9C84",
"OX c #B4948A",
"+X c #B9958C",
"@X c #B49C8C",
"#X c #BB9D8B",
"$X c #A39D95",
"%X c #BC9D92",
"&X c #B89F94",
"*X c #B8A288",
"=X c #BCA38B",
"-X c #ABA89C",
";X c #BAA694",
":X c #8D9AAD",
">X c #A5A8A8",
",X c #A9ABB2",
"<X c #B5B9B6",
"1X c #C09E8F",
"2X c #C1A28D",
"3X c #C5A695",
"4X c #C5AA99",
"5X c #D4AF9B",
"6X c #C8B0A9",
"7X c #CBB4A8",
"8X c #D5BCB2",
"9X c #CCC6BE",
"0X c #8FA2C4",
"qX c #ABB9CA",
"wX c #B1BCCA",
"eX c #A4B2D1",
"rX c #B8C8CC",
"tX c #B9C9D9",
"yX c #B1CAE6",
"uX c #CACACA",
"iX c #C5D4D8",
"pX c #D7D7D8",
"aX c #E9DBDA",
"sX c #E7E0DE",
"dX c #C9DAE3",
"fX c #CDE1E7",
"gX c #D8E4E9",
"hX c #DAEBED",
"jX c #D7E8F1",
"kX c #DAEEF2",
"lX c #DEF1F5",
"zX c #E6E8E9",
"xX c #F4ECEA",
"cX c #F9F1ED",
"vX c #E7EBF2",
"bX c #E5F4F4",
"nX c #EAF5F5",
"mX c #E6F7F8",
"MX c #EBF9FA",
"NX c #F5F4F5",
"BX c #F4F7F9",
"VX c #F3F9FC",
"CX c #FFFEFE",
"ZX c white",
/* pixels */
"ZXZXZXZXZXZXZXZXZXZXZXaXs E C j j j i w t y i t B s a B s C C B j j j j B h B B B T yXVXZXZXZXZXZXZX",
"ZXZXZXZXZXZXZXZXZXZXxX&.j a e 0 i w g w t t i , , t a B B V a t 0 i j C T B g g h h eXZXZXZXZXZXZXZX",
"ZXZXZXZXZXZXZXZXZXZX*.m s r 0 9 0 0 j k t B 0 e a s V C j i t a a a y i e g w ; ; y ~.VXZXZXZXZXZXZX",
"ZXZXZXZXZXZXZXZXZX6Xk p r 9 w 9 w w j i , : : , ; ; o O O ; > i t a a a i i a 9 ; 9 | vXZXZXZXZXZXZX",
"ZXZXZXZXZXZXZXZXpXE u 0 0 g y 0 > i B u : 1 u , : > $ > 0 , 9 y 0 y i i h y y y h 9 y ,XVXZXZXZXZXZX",
"ZXZXZXZXZXZXZXsXm e 0 9 9 > 9 y > i u p A ) +.( S V : : 0 t B i , y t 0 9 9 9 y 9 ; 9 &.vXZXZXZXZXZX",
"ZXZXZXZXZXZXcX`.r w 9 0 0 % > , > , s D ,.n.Z.n.r.X.t a B B a j a h i 9 9 w 9 y y y ; > gXZXZXZXZXZX",
"ZXZXZXZXZXZXaX{ 8 i r w w > : , : 1 A 5.m.W.*XW.Y.+.b t a a t 0 a i g y 9 9 q y y y 6 9 uXZXZXZXZXZX",
"ZXZXZXZXZXZXNXe.1 e < ; 0 > : : : v 5.A.W.W.=X2X=Xn.A C i 0 u i B B y y t 0 w e w g y y >XZXZXZXZXZX",
"ZXZXZXZXZXZXZXxXx < = O > ; , 1 Z ..B.E.W.W.;X=X=XY. .V C i 0 0 0 t t 0 9 0 a 0 q y y y ; ZXZXZXZXZX",
"ZXZXZXZXZXZXZXZX3.1 = % : 1 b H ,.m.E.W.2XW.2X2X*XXX*.D m i i 9 > 0 > 0 y B B a X.|.K.Q 9 rXZXZXZXZX",
"ZXZXZXZXZXZXZXZXaXN l 1 2 b / i.B.A.E.W.2X3X2XoXW.W.n.X.S m 0 u t , t t B B B X.=Xd.3.I.m %.NXZXZXZX",
"ZXZXZXZXZXZXZXZXNXz._ _ H ] i.C.P.P.E.2X2X2XE.W.W.Y.Z.*.X.D B B j t t a a s r p.d.V.a.4.i.i wXZXZXZX",
"ZXZXZXZXZXZXZXZXZX6Xp.p.9.p.C.S.S.E.E.2X2XoX2XE.W.Y.Z.5.X.A V C a i C V j 9 Z 8.=.B.E.j.P.r :XZXZXZX",
"ZXZXZXZXZXZXZXZXZX8Xa.k.B.k.x.S.c.1XE.E.2XE.W.R.R.U.m.n.O.X.D B C C V C i u  .8.3.4.P.S.C.Z pXZXZXZX",
"ZXZXZXZXZXZXZXZXZX4Xj.k.C.C.C.C.c.S.P.2X=XE.W.I.A.A.B.n.+.` D ( Q D i u i u ,.8.:.=.4.E.x.' zXZXZXZX",
"ZXZXZXZXZXZXZXZXNX2Xj.k.C.z.C.x.c.S.S.P.E.P.H.H.A.A.B.p.7.1.,.../ i > 0 p Z i.8.<.z.4.P.P.3.xXZXZXZX",
"ZXZXZXZXZXZXZXZXZX5Xj.k.C.C.C.k.4.j.c.c.C.H.F.F.C.C.C.B.p.p.i.u.W % e b V  .U.oX<.9.4.H.E.u.pXZXZXZX",
"ZXZXZXZXZXZXZXZXZX8X4.j.k.z.z.k.k.l.j.c.k.C.F.C.A.A.A.B.V.V.p.W % m Q D F 7.W.W.R.B.P..XI.h.pXZXZXZX",
"ZXZXZXZXZXZXZXZXZX8X3.4.j.k.p.k.z.k.l.c.F.F.H.F.A.C.C.G.G.d.Q $ { u.] / A m.W.A.A.F.4X4X1X0.vXZXZXZX",
"ZXZXZXZXZXZXZXZXZX5X=.;.4.q.j.z.p.x.F.b.F.L.L.H.D.D.H.D.u.W 0 } F.L.a.} o.K.R.A.8.k.H.XXL.{ BXZXZXZX",
"ZXZXZXZXZXZXZXZXcXQ.4.;.4.4.q.k.z.x.x.F.H.D.v.F.J.J.D.u.! j } h.I.[.F.d.K.K.T.T.9.9.D.H.m.&.vXZXZXZX",
"ZXZXZXZXZXcXZXxX7X].N.;.4.j.j.z.l.b.l.b.u./ / o.o.,.X.| | { s.L.I.I.L.U.N.G.T. XR.I.S.z.].'.fXZXZXZX",
"ZXZXZXcX5X5X=X#X XW.;.:.q.j.l.j.l.z.q.' b u 2 u e $ , 0 b o.d.I.I.R.R.U.N.Y.}.OXW.V.h.].N.`.yXBXZXZX",
"ZXZXNX4XoXP.k.p.4.=.z n ] q.4.4.4.3./ - O O # o $ # O # D J 8.G.R.E. XT.Y.T.|.@X=X|.@X].K.].>XaXZXZX",
"ZXZXaXP.#X@X|.D.q.~ < = 1 b F H _ F : o     o o O o o o m ,.H. X.XE.XXXXT.XXXX@X%X@X&XOX].].|.<XpXZX",
"ZXZXuXL.=X3X4X3X3XI.' = % # % O = o . O o X . o X o o O V d.T.E.R.W.oXW.XXY.XXXXOX#X+X}.].|.|.`.`.ZX",
"ZXZX'.P.x.L.I.E.5X8X-X*.# $ % O O 1 W - O = $ $ # X X o ) J.T.R.oXoX*XoXXX}.T.T.R.R.|.[.].OX%X}.&.NX",
"BXiX-X4X4X4X3X3X2X7X@X>.: 6 $ = o ( [.s.M $ $ $ $   - ~ h. X#XoXW.*X=X*X*XR.T.Y.L.H.L.J.L.OX&X;Xs.uX",
"eX,X4X4X2X.XE.4X6X8X+XF 0 % 5 % o o.{.].v.2.~ c c N -.v.{.#XoX XR.oX*X*X*XT.Y.U.D.C.J.D.D.[.%X3XI.<X",
"/.5X3X3X3X4X.Xb.b.b.-.S A uX%.7 o >.+XOXb.b.v.q.;.q.l.b.[. X XL.G.U.U.W.XX}.K.B.D.m.N.h.D.].*X3XoXzX",
"P.1XS.S.1X6X7X7Xu.c n ( ~ VXBX).Y 3.+X[.].b.l.;.;.;.4.l.v.v.V.V.Z.m.m.Y.XXY.G.n.s.d.g.h.m.L.@X=X9XMX",
"c.<.:.J J <.u.4.M n D ( *.vXBXzX/.-./.1X/.Q././.4.^ =.=.3.2.2.o.:.5.n.Z.U.U.m.r.e.u.g.g.k.K. X;XMXmX",
"j.] n c l 2 - l l n / } D wXvXvX^.=.1X1X1X1X%X{.l.;.-.J H G H ..5.,.7.8.m.m.s.e.w.y.M.h.D.H.=XgXMXmX",
"<.] F M z v l n n M ] o.G wXvXBXeX[ b.%X1X1X1Xq.[ h.q.} / G Z H 5.7.5.5.i.r.7.6.0.y.M.m.B.I.pXVXMXmX",
"G.<.F n v Z F F ] J } >.^ 0XBXBXdX!.d.{.3X1Xl.~ >.t.q.>.' D G F ..5.+...,.r.w.o.6.t.i.m.G.<XnXMXMXlX",
"2.` H J H J ..,.e.y.u.1._ 0XBXZXZX!./.q.h.t.m M } >.} [ N M } ..J .... ...6.*.+.+.*.n.n.-XnXMXMXlXlX",
";Xi.5.n.:.5.5.n.K.].m.1._ ,XBXZXCXvX:X$.$.M n M ~ ^ ~ c x ^ ] >.:.....`  .6.n.*.*.*.n.$XhXnXnXMXlXjX",
"}.n.Y.m.5.n.B.W.@X].n.w.~ NXvXBXCXCXBXyXeX#.x c n 1 - x [ -.-.2.,.,.5. . .6.n.6.6.M.K.fXhXMXMXmXjXfX",
"*X;XW.m.B.B.U.W.&X|.N.6.$.yXZXBXZXZXBXBXBX0X#.x - x M ^ =.-.-.1.5.5.5.6. .+.5.M.r.M.rXhXlXMXMXhXfXrX",
";X;XY.U.B.W.}.@X$X].g.+.qXBXZXZXZXBXgXBXvX0XU m c N N G ] ] :.5.n.+.+.*. . .M.M.M.<XhXbXbXMXbXdXtXtX",
";X*XU.W.U.*XXX|. XN.e.' ZXZXZXBXdX).iX0X^.7 5 5 x c n v n F :.8.n.n.6.*. .@.f.M.<XfXbXMXbXMXhXtXdXkX",
";XW.W.W.A.*X*XY.D.s.@.$XBXBXdX!.U U 7 3 3 4 & & = n v F ~ -.<.8.+.*.O.X.X.O.f.>XdXbXbXMXlXhXiXfXlXmX",
"*X*X=XW.A.*XE.K.g.0.@.gXZXNX_.K 6 5 5 4 3 & & + & x F J =.<.2.<.+. .X.( Q D '.rXhXbXMXnXhXdXfXlXMXmX",
"W.XXXXW.A.W.H.n.2.{ ( ZXBXtXL * 5 4 4 4 & & & @ # $ G _ ] :.>.} ( Q V V y 6 ! rXMXMXbXjXfXfXkXmXMXkX",
"Y.Y.W.N.m.n.s.*.) S tXBX).5 5 * & & @ & 4 & @ & @ # = G _ G H W V V a > 3 K K R rXMXhXfXfXlXMXMXMXrX",
"K.K.N.i.u.r.@.{ Q >XdXpX4 4 * $ & @ # & @ & & & + @ # $ e r , E | # X 3 3 L P P R rXkXkXlXMXMXMXmX(.",
"u.a.e.+.1.f.*.O.Q f 5 & 4 & & & @ + & @ & @ + # & # # . + . . T %.d 6 7 K L P U P T iXlXbXMXMXMXkX~.",
"s.s.r.f.N.f.*.*.B ; * * @ @ # @ @ # & @ # & & & & # # + + + @ T ~.! %.%.P I I I P K (.kXlXlXbXMXfX! ",
"}.`.`.`.M.t.f.X.6 * * @ @ @ @ @ + @ # # & & & & & # # X + . @ ! (.&.%.:X,X(.R I K (.(.qXlXlXMXlXrXd "
};
