/* XPM */
static char *_da25c775d254b5ff85c54951ebbad6e2iGIZFOBWUJF5RU2[] = {
/* columns rows colors chars-per-pixel */
"50 50 249 2 ",
"   c #040403",
".  c #0B0605",
"X  c #0B0905",
"o  c #0C070B",
"O  c #0E090A",
"+  c #150A05",
"@  c #180A06",
"#  c #140B0A",
"$  c #1A0C0B",
"%  c #14100C",
"&  c #1D120E",
"*  c #0E0B15",
"=  c #140D13",
"-  c #1A1413",
";  c #210D0A",
":  c #260D09",
">  c #23120D",
",  c #2B140D",
"<  c #29180F",
"1  c #35160B",
"2  c #271714",
"3  c #2B1A13",
"4  c #351A14",
"5  c #3B1D12",
"6  c #2C211C",
"7  c #3B2117",
"8  c #332118",
"9  c #3B251C",
"0  c #372825",
"q  c #2E2B30",
"w  c #431A0D",
"e  c #481E15",
"r  c #541F11",
"t  c #42251C",
"y  c #4A261A",
"u  c #53231C",
"i  c #58271C",
"p  c #59361F",
"a  c #642E1D",
"s  c #6C351E",
"d  c #442A22",
"f  c #4C2D23",
"g  c #562A22",
"h  c #5D2C22",
"j  c #483327",
"k  c #553223",
"l  c #5C3425",
"z  c #56362A",
"x  c #5C3A2C",
"c  c #4C3733",
"v  c #593B33",
"b  c #622E23",
"n  c #663729",
"m  c #6C3B2C",
"M  c #753925",
"N  c #733C2B",
"B  c #683D32",
"V  c #773F32",
"C  c #584037",
"Z  c #68422D",
"A  c #7B442D",
"S  c #684436",
"D  c #6B4A3B",
"F  c #754333",
"G  c #7C4434",
"H  c #774937",
"J  c #744C3B",
"K  c #7B4B3B",
"L  c #6A513E",
"P  c #77503B",
"I  c #543D40",
"U  c #574645",
"Y  c #5B585F",
"T  c #684A42",
"R  c #784C40",
"E  c #6A544B",
"W  c #795647",
"Q  c #7C5A54",
"!  c #76625A",
"~  c #735C6A",
"^  c #766668",
"/  c #766770",
"(  c #813F2F",
")  c #87442C",
"_  c #854534",
"`  c #884837",
"'  c #844C3B",
"]  c #8A4C3A",
"[  c #964D37",
"{  c #8A523C",
"}  c #93533C",
"|  c #9A553C",
" . c #A85A3A",
".. c #AA603A",
"X. c #884D42",
"o. c #825443",
"O. c #8C5443",
"+. c #8B5A47",
"@. c #845C4A",
"#. c #935444",
"$. c #945B45",
"%. c #9D5C44",
"&. c #965948",
"*. c #9B5E4B",
"=. c #835E57",
"-. c #A45A47",
";. c #B15754",
":. c #8A624B",
">. c #95664C",
",. c #9C624B",
"<. c #8C6352",
"1. c #886557",
"2. c #996954",
"3. c #936D59",
"4. c #9B725A",
"5. c #99745C",
"6. c #A3634B",
"7. c #A56649",
"8. c #AB654D",
"9. c #AC6B4E",
"0. c #B46B4A",
"q. c #BB724C",
"w. c #A86754",
"e. c #A46A52",
"r. c #AB6D54",
"t. c #B66857",
"y. c #AC7255",
"u. c #A57358",
"i. c #AD745B",
"p. c #B77456",
"a. c #B3765B",
"s. c #B47B5C",
"d. c #BC7C5C",
"f. c #856867",
"g. c #9A7868",
"h. c #8E7470",
"j. c #A37C63",
"k. c #A87964",
"l. c #B47C62",
"z. c #B47865",
"x. c #BC7C62",
"c. c #A57F77",
"v. c #C1734D",
"b. c #C37C5A",
"n. c #C86F6B",
"m. c #C47C63",
"M. c #BD825F",
"N. c #9D8275",
"B. c #A58164",
"V. c #A98264",
"C. c #A7866B",
"Z. c #AA856C",
"A. c #BC8264",
"S. c #B78768",
"D. c #A98774",
"F. c #AC8D7C",
"G. c #B28D74",
"H. c #B09075",
"J. c #B59274",
"K. c #B8977C",
"L. c #CA855D",
"P. c #C38464",
"I. c #C88665",
"U. c #CC8B64",
"Y. c #C3856A",
"T. c #C48A6D",
"R. c #CC8C6B",
"E. c #D28E69",
"W. c #CD9169",
"Q. c #D7936A",
"!. c #D4946C",
"~. c #CA8573",
"^. c #C88B74",
"/. c #CC8D74",
"(. c #D1857B",
"). c #C59373",
"_. c #CD9474",
"`. c #CB9879",
"'. c #D39473",
"]. c #D49877",
"[. c #DA9C75",
"{. c #D49B7D",
"}. c #DB9C7C",
"|. c #E09B7F",
" X c #C0A07D",
".X c #DAA178",
"XX c #DDA27B",
"oX c #E2A47E",
"OX c #8F7F86",
"+X c #94888C",
"@X c #B89986",
"#X c #A69596",
"$X c #AD9191",
"%X c #BEA387",
"&X c #BBA396",
"*X c #A896AB",
"=X c #B9A7A8",
"-X c #B3AAA9",
";X c #B5A8B8",
":X c #CE9581",
">X c #D79C83",
",X c #E39B94",
"<X c #C3A98D",
"1X c #DDA484",
"2X c #DBA689",
"3X c #C9AD95",
"4X c #DAAD94",
"5X c #C8B49C",
"6X c #CCB49D",
"7X c #E4AA84",
"8X c #E5A788",
"9X c #E3AC8B",
"0X c #E7B18C",
"qX c #EAB28D",
"wX c #E4AD93",
"eX c #E3A997",
"rX c #E5B294",
"tX c #E9B494",
"yX c #E6B599",
"uX c #EAB59A",
"iX c #E9B99B",
"pX c #CCAEA1",
"aX c #CDB8AA",
"sX c #D4BBA3",
"dX c #D4BDAB",
"fX c #C9B8B8",
"gX c #EAB9A1",
"hX c #F0BAA2",
"jX c #D8C2AC",
"kX c #DAC6B7",
"lX c #E4CDB6",
"zX c #BFB6C4",
"xX c #C9BCC9",
"cX c #C7BFD4",
"vX c #CBC4C7",
"bX c #D8C7C9",
"nX c #D1C8D6",
"mX c #D9D4D8",
"MX c #E5D8D3",
"NX c #D1CAE0",
"BX c #DED9E6",
"VX c #E1DBE7",
"CX c #E9E6EA",
"ZX c #F3EDEB",
"AX c #ECE9F2",
"SX c #F3EFF0",
"DX c #F5F3F5",
"FX c #F7F5F8",
"GX c #FFFFFF",
/* pixels */
"GXGXGXGXGXGXGXGXGXGXGXGXGXGXGXGXGXSX#X^ N.$X&X3X<X%X@X@X$X$X#X;XBXFXGXGXGXGXGXGXGXGXGXGXGXGXGXGXGXGX",
"GXGXGXGXGXGXGXGXGXGXGXGXGXGXGXGXAX=X&XpXsXsX5X5X<X@XJ.G.D.D.@XOX*XDXGXGXGXGXGXGXGXGXGXGXGXGXGXGXGXGX",
"GXGXGXGXGXGXGXGXGXGXGXGXGXGXGXBXfXaXjXjXsX3XH.f.W L R W <.<.2.k.h.=XDXGXGXGXGXGXGXGXGXGXGXGXGXGXGXGX",
"GXGXGXGXGXGXGXGXGXGXGXGXGXGXBXkXaXdXlX6Xg.j < > # + @ > e g R =.=.Q *XNXDXGXGXGXGXGXGXGXGXGXGXGXGXGX",
"GXGXGXGXGXGXGXGXGXGXGXGXAXvXjX5XdXkX<XP 1 & % + o . . $ > 4 g D @.Q Q ~ *XzXcXDXGXGXGXGXGXGXGXGXGXGX",
"GXGXGXGXGXGXGXGXGXGXGXBXvXjX&XjXkX3X:.5 3 @ @ @ @ ; ; ; ; , t z S R R T ! h.+X-XFXGXGXGXGXGXGXGXGXGX",
"GXGXGXGXGXGXGXGXGXGXSX;X5XpXjXkXjXS.p < $ : 1 e b s M M M M b n Z J P C R 1.N.&XnXFXGXGXGXGXGXGXGXGX",
"GXGXGXGXGXGXGXGXGXGXvX6X5XkXjXlXsX@.< , w s ) [ 0.v.v.v.q.q.q.-.} >.J x S 1.B.H.&XVXGXGXGXGXGXGXGXGX",
"GXGXGXGXGXGXGXGXGXCX5X6XlXjXlXlXC.w w a ) ..q.L.L.Q.Q.Q.Q.Q.Q.L.M.M.$.P P P C.H.D.&XDXGXGXGXGXGXGXGX",
"GXGXGXGXGXGXGXGXDXdX3XjXsXjXlX5XL w M  .v.L.!..X[.|.oXoXoXoXQ.Q.W.U.q.>.+.>.5.K.F.$XmXGXGXGXGXGXGXGX",
"GXGXGXGXGXGXGXGXkX5XsXsXsXjXsXB.1 s  .b.Q..X7X0X7X7XqXoXoXoX[.[.W.W.L.q.u.u.4.H.@XF.pXCXGXGXGXGXGXGX",
"GXGXGXGXGXGXGXZX&XsX5X%X<XsXK.Z r ) L.Q.oXoX0X0XqXqXqXqXoXoXoXQ.!.W.U.L.9.V.B.V.K.D.F.xXFXGXGXGXGXGX",
"GXGXGXGXGXGXFXjX6X<X X X XK.>.w M ..L.[.0X0X0XqXqXqX0X0XoXoX.X.X!.W.U.L.0.V.Z.u.G.K.j.&XVXGXGXGXGXGX",
"GXGXGXGXGXGXkX<X%X X XV.`.V.p p [ v.Q.oX0XqX0XqXqXqX0X0XqXoX.X.XW.W.W.L.q.e.S.B.j.J.C.F.cXGXGXGXGXGX",
"GXGXGXGXGXMX%XK.K. XV.J.V.:.r s q.Q.oXqXqXiXtXtXiXiXiXiXtX0XoX.X!.W.W.U.M.7.s.j.B.Z.K.j.=XFXGXGXGXGX",
"GXGXGXGXFXdXJ.J.<XJ.V.J.2.s r | W.oX7XqXiXiXiXiXiXiXiXiXiX7X XS.M.V.M.P.M.e.>.2.j.g.K.j.pXAXGXGXGXGX",
"GXGXGXGXMXJ.J. XJ.B.s.4.A i a p..X.X{.{.`.2XwXrXiXyXrX2X`.4.o.K O.*.$.{ i.-.%.2.:.C.C.V.&XMXGXGXGXGX",
"GXGXGXZX5XJ.J.J.B.5.2.' i u K P.y.,.{ { ' #.r.{.4X2X{.A.,.' V X.z.Y.^.k.O.w.} >.+.5.j.j.Z.fXFXGXGXGX",
"GXGXSX6XS.B.V.V.u.+.G b 5 y ,.y.S.^.S.e._ _ [ s.[.}.T.r.` _ [ %.#.[ t.Y.r.,.} O.<.<.j.4.4.&XBXGXGXGX",
"GXGX5XJ.V.B.V.>.{ A p y 1 M 8.d.x.x.A.l.r.9.9.L..X1XY.9.-.w.z.k.2.O._ -.7.,.%.A O.@.2.j.3.j.;XFXGXGX",
"GXDXD.V.C.B.>.>.n a k : e ] 9.8.#.*.R S <.d.P.`.4XrX_.p.p.z.H c 4 4 R 6.9.7.-.N K D >.g.4.>.OXVXGXGX",
"GXaX5.s.>.:.+.M s Z 5 : a %.%.,.m t 4 2 B ] P.1X0X0X!.A.Y.i.@Xv d T e z.a.r.7.N n l W 3.4.<.h.nXGXGX",
"FXg.j.+.{ A M Z K k $ , M 0.p.d.>.3.3.j.k.~.{.7XoX9XR.R.>X>X(.z.2.4.2.i.d.a.-.A y k D 3.5.:.3.;XGXGX",
"SXD.@.Z M Z A } l , @ 5 ] I.!.[.}..X:X`.{.>X8X.X7X7XP.R.{.2X2X{._.T.T.P.P.A.8.' t u B @.C.3.=.*XGXGX",
"SXc.R H H { ' Z 3 O $ i 0.!..X1X7X8XwXtXuXwX8X}.7X}.m.I.8XtXtX8X1X}.!.R.R.M.9.} 5 5 x P Z.j.=.h.FXGX",
"SXD.W 4.:.Z Z 7 + # $ V M.!.[.oXtXuXhXhXuXtX9XwXwX{.R.b.>XtXtXtX8X8X[.E.L.p. .{ w 7 k { j.G.f.f.BXGX",
"MXc.<.K n P 9 $ # # $ K p.!..X7XuXhXhXwX/.8X>X>X>X~.Y.~.'.{.8XtX8X8X|.E.b.;.| ] w 9 t K 3.D.N.=.zXGX",
"mXc.K B P t > & # + > ' q.E.oX0XuXuX>Xt.0.(.2.*.z.w.R X.z.t.8.~.1X8X[.'.x.%.} ` e t t S <.Z.D.! zXGX",
"bX1.S J f 1 < & + + : ' q.U.8X8XqX8Xm.p.1Xm.m V X.X.&.o.V -.I.d.!.>X}.'.p.&.] _ w d 5 Z P C.K.1.*XGX",
"ZXJ n x 7 < 4 > @ > , ` 0.U.XX2X1XE.b.1XtXwX>X>Xk.&.r.A.~.~./.'.Y.R.I.m.t.[ ] V w f t S Z B.H.1.;XFX",
"FXg.H y 5 2 3 2 @ t y ] r.I.}.}.[.U.'.tXuXeX4XgXgXgX4X`.`.'.>X].Y.b.p.t.%._ _ A a l y F P B.H.Q fXFX",
"GXpX@.l t 2 4 3 $ n a } 8.P.E./.E.E.>XeXeX2X:X(.(.n.n.~.(.`.`.^.m.8.-.[ ` _ _ ) M Z k :.P 3.D.W #XFX",
"GXbX3.x f 7 7 8 @ l K ) ,.P.I.R._.'.2X2X^.t.n.n.n.t.;.;.-.*.z.S.x.-.-.) _ ` ( M V B Z 5.L @.D.D ! BX",
"GXbXg.Z z t 4 9 @ 5 } p.| P._.W.[.1XXXY.[ n.n.,X,X,X(.n.;.` _ *.a.m.9.[ #._ ( M +.n W 5.L L g.v ! mX",
"GXbXB.Z p k 7 t & t 9.M.d.a.`.].1X4X.X{.8X,XeXeXeX,X:X(.~.~./.T._.W.7.,.%._ ) ( +.k g.1.T D 1.z h.AX",
"GX@X3.P p l y 7 3 @ u..X!.y.T.].{.4XyXyXtX9X1X{./.I./.(.).>X>XT._.d.6.9.%._ ` [ o.f g.D B D Q z / FX",
"MX3.1.T f n B 7 3 = d k.a.,.z.Y._.>XeXyXyXwX1X'.E./.{.{.>X1X`.A.s.7.6.*.' G V ' Z W W S z T E v ;XGX",
"vX=.=.T t x S z 3 + o + 1 f w.A.T._.2X4XyXwXtXeX9X9X8X2X2X1XT.9.9.8.*.G N y d x L Q L C x D C U mXGX",
"FX+XT C d y x j 3 % .     o T k.~.S.T.1XyXyXgXgXuXyX4X2X`.`.i.*.r.6.O.V B f g B Z c z Z B v v +XDXGX",
"GXmX~ j 0 f S x 3 % .       - R i.Z.A._.4XyXgXeXeXeXeX>XS.z.#.&.6.O.V n H B d d < 3 z B x v I zXFXGX",
"GXFX+XY 0 C :.W y & X X .     d R &.O.2.:X(.n.:X/.^.~.n.w.#.V X.' N l B O.p @   X t k k C c / SXGXGX",
"GXGXmX+X^ T W >.Z 7 # % O X   3 +.V h B X.&.#.#.&.#.#.X.V n N m n h N O.O.Z + X < l p z j v ;XGXGXGX",
"GXGXFXvX-XN.! :.J t 3 & # - . + o.+.B u g g u u h h b b b h h h b V O.*.7.H : 6 c Z d d 0 ~ nXGXGXGX",
"GXGXGXDXnXvX-XE Z L c 0 > 6 $ o v #.X.h u e u u u u u u u g b n F O.$.u.i.Z < 3 8 j 8 9 d / CXGXGXGX",
"GXGXGXGXFXCXmX#XC 9 0 6 2 - % O d &.&.R b b u u u u u g i n m G ] $.u.M.s.K 7 t C 9 9 6 0 +XFXGXGXGX",
"GXGXGXGXGXGXFXmXh.0 6 2 & O O X 2 <.6.&.X.V h e e u h b m G G ] &.e.s.S.V.>.1 9 8 0 0 > U CXGXGXGXGX",
"GXGXGXGXGXGXGXFXnXY 6 2 - % O X 2 o.w.w.#.X.m e e g n V H G ] ,.e.y.s.S.S.s.j - 0 0 2 & -XGXGXGXGXGX",
"GXGXGXGXGXGXGXGXSX-X0 - % # O X - T 2.w.w.2.X.b g b N G _ &.,.6.e.y.S.).).M.S % % 6 q C GXGXGXGXGXGX",
"GXGXGXGXGXGXGXGXGXCX^ - o   O O X c e.9.s.y.,.` A m M ' $.,.6.6.9.A.). X`.S.W % % = q kXGXGXGXGXGXGX",
"GXGXGXGXGXGXGXGXGXDXmXOXq * * * q h.B.s.k.V.y.,.} ) ) { $.%.%.,.s.T.K.`.).S.E % - - Y FXGXGXGXGXGXGX"
};
